<?xml version="1.0" encoding="utf-8"?>
<!-- Generator: Adobe Illustrator 24.0.1, SVG Export Plug-In . SVG Version: 6.00 Build 0)  -->
<svg version="1.1" id="_圖層_2" xmlns="http://www.w3.org/2000/svg" xmlns:xlink="http://www.w3.org/1999/xlink" x="0px" y="0px"
	 viewBox="0 0 47.8 47.9" style="enable-background:new 0 0 47.8 47.9;" xml:space="preserve">
<style type="text/css">
	.st0{fill:#F3904C;}
</style>
<g id="_圖層_1">
	<g>
		<g>
			<g>
				<path class="st0" d="M26.3,14.3V0h-4.8v18c0,4.6-3.8,8.4-8.4,8.4S4.8,22.6,4.8,18V0H0v14.3c0,3.8,1.6,7.3,4.2,9.7
					c2.3,2.2,5.5,3.5,8.9,3.5s6.6-1.3,8.9-3.5C24.7,21.6,26.3,18.1,26.3,14.3z"/>
				<path class="st0" d="M21.5,14.3V0h4.8v18c0,4.6,3.8,8.4,8.4,8.4s8.4-3.8,8.4-8.4V0h4.8v14.3c0,3.8-1.6,7.3-4.2,9.7
					c-2.3,2.2-5.5,3.5-8.9,3.5s-6.6-1.3-8.9-3.5C23.2,21.6,21.5,18.1,21.5,14.3z"/>
			</g>
			<rect x="34.7" y="0" class="st0" width="13.2" height="1.1"/>
		</g>
		<g>
			<g>
				<path class="st0" d="M21.5,33.6v14.3h4.8V29.9c0-4.6,3.8-8.4,8.4-8.4s8.4,3.8,8.4,8.4v17.9h4.8V33.6c0-3.8-1.6-7.3-4.2-9.7
					c-2.3-2.2-5.5-3.5-8.9-3.5s-6.6,1.3-8.9,3.5C23.2,26.3,21.5,29.7,21.5,33.6z"/>
				<path class="st0" d="M26.3,33.6v14.3h-4.8V29.9c0-4.6-3.8-8.4-8.4-8.4s-8.4,3.8-8.4,8.4v17.9H0V33.6c0-3.8,1.6-7.3,4.2-9.7
					c2.3-2.2,5.5-3.5,8.9-3.5s6.6,1.3,8.9,3.5C24.7,26.3,26.3,29.7,26.3,33.6z"/>
			</g>
			<rect y="46.7" class="st0" width="13.1" height="1.1"/>
		</g>
	</g>
</g>
</svg>
